# Made in Blockbench 5.1.6
mtllib hot_air_furnace.mtl

o mesh
v 2 0.5 2
v 2 0.5 -1
v 2 0 2
v 2 0 -1
v -1 0.5 2
v -1 0.5 -1
v -1 0 2
v -1 0 -1
v 1.64644625 3.853553125 1
v 2 3.5 1
v 1.64644625 3.146446875 1
v 1.64644625 3.853553125 0
v 2 3.5 0
v 1.64644625 3.146446875 0
v 1.292893125 3.5 1
v 1.292893125 3.5 0
v -0.6464462499999999 3.853553125 0.006249999999999978
v -1 3.5 0.006249999999999978
v -0.6464462499999999 3.146446875 0.006249999999999978
v -0.6464462499999999 3.853553125 1.00625
v -1 3.5 1.00625
v -0.6464462499999999 3.146446875 1.00625
v -0.292893125 3.5 0.006249999999999978
v -0.292893125 3.5 1.00625
v -0.5 4 1
v -0.5 4 0
v -0.5 3.5 1
v -0.5 3.5 0
v -1 4 1
v -1 4 0
v -1 3.5 1
v -1 3.5 0
v 0 4 1.8125
v 0 4 1.5
v 0 3.5 1.8125
v 0 3.5 1.5
v -0.8125 4 1.8125
v -0.5 4 1.5
v -0.8125 3.5 1.8125
v -0.5 3.5 1.5
v 1.8125 4 1
v 1.5 4 1
v 1.8125 3.5 1
v 1.5 3.5 1
v 1.8125 4 1.8125
v 1.5 4 1.5
v 1.8125 3.5 1.8125
v 1.5 3.5 1.5
v 1 4 -0.8125
v 1 4 -0.5
v 1 3.5 -0.8125
v 1 3.5 -0.5
v 1.8125 4 -0.8125
v 1.5 4 -0.5
v 1.8125 3.5 -0.8125
v 1.5 3.5 -0.5
v -0.8125 4 0
v -0.5 4 0
v -0.8125 3.5 0
v -0.5 3.5 0
v -0.8125 4 -0.8125
v -0.5 4 -0.5
v -0.8125 3.5 -0.8125
v -0.5 3.5 -0.5
v 1.8125 4 0
v 1.5 4 0
v 1.8125 3.5 0
v 1.5 3.5 0
v 1.8125 4 -0.8125
v 1.5 4 -0.5
v 1.8125 3.5 -0.8125
v 1.5 3.5 -0.5
v 1 4 1.8125
v 1 4 1.5
v 1 3.5 1.8125
v 1 3.5 1.5
v 1.8125 4 1.8125
v 1.5 4 1.5
v 1.8125 3.5 1.8125
v 1.5 3.5 1.5
v -0.8125 4 1
v -0.5 4 1
v -0.8125 3.5 1
v -0.5 3.5 1
v -0.8125 4 1.8125
v -0.5 4 1.5
v -0.8125 3.5 1.8125
v -0.5 3.5 1.5
v 0 4 -0.8125
v 0 4 -0.5
v 0 3.5 -0.8125
v 0 3.5 -0.5
v -0.8125 4 -0.8125
v -0.5 4 -0.5
v -0.8125 3.5 -0.8125
v -0.5 3.5 -0.5
v 1 4 2
v 1 4 1.5
v 1 3 2
v 1 3 1.5
v 0 4 2
v 0 4 1.5
v 0 3 2
v 0 3 1.5
v 1 4 -0.5
v 1 4 -1
v 1 3 -0.5
v 1 3 -1
v 0 4 -0.5
v 0 4 -1
v 0 3 -0.5
v 0 3 -1
v 2 4 1
v 2 4 0
v 2 3.5 1
v 2 3.5 0
v 1.5 4 1
v 1.5 4 0
v 1.5 3.5 1
v 1.5 3.5 0
v 1 1 -0.5
v 1 1 -0.75
v 1 0.5 -0.5
v 1 0.5 -0.75
v 0 1 -0.5
v 0 1 -0.75
v 0 0.5 -0.5
v 0 0.5 -0.75
v -0.5 1 0
v -0.75 1 0
v -0.5 0.5 0
v -0.75 0.5 0
v -0.5 1 1
v -0.75 1 1
v -0.5 0.5 1
v -0.75 0.5 1
v 0 1 1.5
v 0 1 1.75
v 0 0.5 1.5
v 0 0.5 1.75
v 1 1 1.5
v 1 1 1.75
v 1 0.5 1.5
v 1 0.5 1.75
v 1.5 0.6875 0
v 1.6875 0.6875 0
v 1.5 0.5 0
v 1.6875 0.5 0
v 1.5 0.6875 -0.5
v 1.6875 0.6875 -0.6875
v 1.5 0.5 -0.5
v 1.6875 0.5 -0.6875
v 0 0.6875 -0.5
v 0 0.6875 -0.6875
v 0 0.5 -0.5
v 0 0.5 -0.6875
v -0.5 0.6875 -0.5
v -0.6875 0.6875 -0.6875
v -0.5 0.5 -0.5
v -0.6875 0.5 -0.6875
v -0.5 0.6875 1
v -0.6875 0.6875 1
v -0.5 0.5 1
v -0.6875 0.5 1
v -0.5 0.6875 1.5
v -0.6875 0.6875 1.6875
v -0.5 0.5 1.5
v -0.6875 0.5 1.6875
v 1 0.6875 1.5
v 1 0.6875 1.6875
v 1 0.5 1.5
v 1 0.5 1.6875
v 1.5 0.6875 1.5
v 1.6875 0.6875 1.6875
v 1.5 0.5 1.5
v 1.6875 0.5 1.6875
v -0.5 0.6875 0
v -0.6875 0.6875 0
v -0.5 0.5 0
v -0.6875 0.5 0
v -0.5 0.6875 -0.5
v -0.6875 0.6875 -0.6875
v -0.5 0.5 -0.5
v -0.6875 0.5 -0.6875
v 1 0.6875 -0.5
v 1 0.6875 -0.6875
v 1 0.5 -0.5
v 1 0.5 -0.6875
v 1.5 0.6875 -0.5
v 1.6875 0.6875 -0.6875
v 1.5 0.5 -0.5
v 1.6875 0.5 -0.6875
v 1.5 0.6875 1
v 1.6875 0.6875 1
v 1.5 0.5 1
v 1.6875 0.5 1
v 1.5 0.6875 1.5
v 1.6875 0.6875 1.6875
v 1.5 0.5 1.5
v 1.6875 0.5 1.6875
v 0 0.6875 1.5
v 0 0.6875 1.6875
v 0 0.5 1.5
v 0 0.5 1.6875
v -0.5 0.6875 1.5
v -0.6875 0.6875 1.6875
v -0.5 0.5 1.5
v -0.6875 0.5 1.6875
v 1.1875 5.8125 1.1875
v 1.1875 5.8125 -0.1875
v 1.1875 5.5625 1.1875
v 1.1875 5.5625 -0.1875
v -0.1875 5.8125 1.1875
v -0.1875 5.8125 -0.1875
v -0.1875 5.5625 1.1875
v -0.1875 5.5625 -0.1875
v 1.1875 5.3125 1.1875
v 1.1875 5.3125 -0.1875
v 1.1875 5.0625 1.1875
v 1.1875 5.0625 -0.1875
v -0.1875 5.3125 1.1875
v -0.1875 5.3125 -0.1875
v -0.1875 5.0625 1.1875
v -0.1875 5.0625 -0.1875
v 1.5 1 1
v 1.75 1 1
v 1.5 0.5 1
v 1.75 0.5 1
v 1.5 1 0
v 1.75 1 0
v 1.5 0.5 0
v 1.75 0.5 0
v 1.5 2 1.5
v 1.5 2 -0.5
v 1.5 1 1.5
v 1.5 1 -0.5
v -0.5 2 1.5
v -0.5 2 -0.5
v -0.5 1 1.5
v -0.5 1 -0.5
v 1.5 1.00625 1.5
v 1.5 1.00625 -0.5
v 1.5 0.00625 1.5
v 1.5 0.00625 -0.5
v -0.5 1.00625 1.5
v -0.5 1.00625 -0.5
v -0.5 0.00625 1.5
v -0.5 0.00625 -0.5
v 1.5 3 1.5
v 1.5 3 -0.5
v 1.5 2 1.5
v 1.5 2 -0.5
v -0.5 3 1.5
v -0.5 3 -0.5
v -0.5 2 1.5
v -0.5 2 -0.5
v 1.5 4 1.5
v 1.5 4 -0.5
v 1.5 3 1.5
v 1.5 3 -0.5
v -0.5 4 1.5
v -0.5 4 -0.5
v -0.5 3 1.5
v -0.5 3 -0.5
v 1 6 1
v 1 6 0
v 1 5.25 1
v 1 5.25 0
v 0 6 1
v 0 6 0
v 0 5.25 1
v 0 5.25 0
v 1.625 4.25 1.625
v 1.625 4.25 -0.625
v 1.625 3.25 1.625
v 1.625 3.25 -0.625
v -0.625 4.25 1.625
v -0.625 4.25 -0.625
v -0.625 3.25 1.625
v -0.625 3.25 -0.625
v 1 5.25 1
v 1 5.25 0
v 1.625 4.25 1.625
v 1.625 4.25 -0.625
v 0 5.25 1
v 0 5.25 0
v -0.625 4.25 1.625
v -0.625 4.25 -0.625
vt 0.375 0.125
vt 0 0.125
vt 0 0.0625
vt 0.375 0.0625
vt 0.375 0.0625
vt 0.375 0.125
vt 0 0.125
vt 0 0.0625
vt 0.625 0.625
vt 1 0.625
vt 1 1
vt 0.625 1
vt 1 0.25
vt 1 0.625
vt 0.625 0.625
vt 0.625 0.25
vt 0.375 0.0625
vt 0.375 0.125
vt 0 0.125
vt 0 0.0625
vt 0.375 0.125
vt 0 0.125
vt 0 0.0625
vt 0.375 0.0625
vt 0.359375 0.8359375
vt 0.296875 0.8359375
vt 0.296875 0.7734375
vt 0.359375 0.7734375
vt 0.359375 0.7734375
vt 0.359375 0.8359375
vt 0.296875 0.8359375
vt 0.296875 0.7734375
vt 0.3828125 0.75
vt 0.5078125 0.75
vt 0.5078125 0.8125
vt 0.3828125 0.8125
vt 0.5078125 0.8125
vt 0.5078125 0.875
vt 0.3828125 0.875
vt 0.3828125 0.8125
vt 0.5078125 0.8125
vt 0.3828125 0.8125
vt 0.3828125 0.875
vt 0.5078125 0.875
vt 0.5078125 0.75
vt 0.5078125 0.8125
vt 0.3828125 0.8125
vt 0.3828125 0.75
vt 0.359375 0.8359375
vt 0.296875 0.8359375
vt 0.296875 0.7734375
vt 0.359375 0.7734375
vt 0.359375 0.7734375
vt 0.359375 0.8359375
vt 0.296875 0.8359375
vt 0.296875 0.7734375
vt 0.3828125 0.75
vt 0.5078125 0.75
vt 0.5078125 0.8125
vt 0.3828125 0.8125
vt 0.5078125 0.8125
vt 0.5078125 0.875
vt 0.3828125 0.875
vt 0.3828125 0.8125
vt 0.5078125 0.8125
vt 0.3828125 0.8125
vt 0.3828125 0.875
vt 0.5078125 0.875
vt 0.5078125 0.75
vt 0.5078125 0.8125
vt 0.3828125 0.8125
vt 0.3828125 0.75
vt 0.5078125 0.875
vt 0.3828125 0.875
vt 0.3828125 0.8125
vt 0.5078125 0.8125
vt 0.5078125 0.8125
vt 0.5078125 0.875
vt 0.3828125 0.875
vt 0.3828125 0.8125
vt 0.5078125 0.75
vt 0.5078125 0.8125
vt 0.3828125 0.8125
vt 0.3828125 0.75
vt 0.5078125 0.875
vt 0.3828125 0.875
vt 0.3828125 0.8125
vt 0.5078125 0.8125
vt 0.34375 0.7734375
vt 0.34375 0.8359375
vt 0.28125 0.8359375
vt 0.28125 0.7734375
vt 0.34375 0.8359375
vt 0.28125 0.8359375
vt 0.28125 0.7734375
vt 0.34375 0.7734375
vt 0.4453125 0.8359375
vt 0.3828125 0.8359375
vt 0.3828125 0.7734375
vt 0.4453125 0.7734375
vt 0.44586796875 0.7734375
vt 0.44586796875 0.8359375
vt 0.3828125 0.8359375
vt 0.3828125 0.7734375
vt 0.28125 0.875
vt 0.3828125 0.875
vt 0.3828125 0.8359375
vt 0.3203125 0.8359375
vt 0.3828125 0.8359375
vt 0.3828125 0.875
vt 0.28125 0.875
vt 0.3203125 0.8359375
vt 0.3828125 0.7734375
vt 0.3828125 0.8359375
vt 0.28125 0.8359375
vt 0.28125 0.7734375
vt 0.4453125 0.8359375
vt 0.3828125 0.8359375
vt 0.3828125 0.7734375
vt 0.4453125 0.7734375
vt 0.4453125 0.8359375
vt 0.3828125 0.8359375
vt 0.3828125 0.7734375
vt 0.4453125 0.7734375
vt 0.44586796875 0.7734375
vt 0.44586796875 0.8359375
vt 0.3828125 0.8359375
vt 0.3828125 0.7734375
vt 0.28125 0.875
vt 0.3828125 0.875
vt 0.3828125 0.8359375
vt 0.3203125 0.8359375
vt 0.3828125 0.8359375
vt 0.3828125 0.875
vt 0.28125 0.875
vt 0.3203125 0.8359375
vt 0.3828125 0.7734375
vt 0.3828125 0.8359375
vt 0.28125 0.8359375
vt 0.28125 0.7734375
vt 0.4453125 0.8359375
vt 0.3828125 0.8359375
vt 0.3828125 0.7734375
vt 0.4453125 0.7734375
vt 0.4453125 0.8359375
vt 0.3828125 0.8359375
vt 0.3828125 0.7734375
vt 0.4453125 0.7734375
vt 0.44586796875 0.7734375
vt 0.44586796875 0.8359375
vt 0.3828125 0.8359375
vt 0.3828125 0.7734375
vt 0.28125 0.875
vt 0.3828125 0.875
vt 0.3828125 0.8359375
vt 0.3203125 0.8359375
vt 0.3828125 0.8359375
vt 0.3828125 0.875
vt 0.28125 0.875
vt 0.3203125 0.8359375
vt 0.3828125 0.7734375
vt 0.3828125 0.8359375
vt 0.28125 0.8359375
vt 0.28125 0.7734375
vt 0.4453125 0.8359375
vt 0.3828125 0.8359375
vt 0.3828125 0.7734375
vt 0.4453125 0.7734375
vt 0.4453125 0.8359375
vt 0.3828125 0.8359375
vt 0.3828125 0.7734375
vt 0.4453125 0.7734375
vt 0.44586796875 0.7734375
vt 0.44586796875 0.8359375
vt 0.3828125 0.8359375
vt 0.3828125 0.7734375
vt 0.28125 0.875
vt 0.3828125 0.875
vt 0.3828125 0.8359375
vt 0.3203125 0.8359375
vt 0.3828125 0.8359375
vt 0.3828125 0.875
vt 0.28125 0.875
vt 0.3203125 0.8359375
vt 0.3828125 0.7734375
vt 0.3828125 0.8359375
vt 0.28125 0.8359375
vt 0.28125 0.7734375
vt 0.4453125 0.8359375
vt 0.3828125 0.8359375
vt 0.3828125 0.7734375
vt 0.4453125 0.7734375
vt 0.4453125 0.8359375
vt 0.3828125 0.8359375
vt 0.3828125 0.7734375
vt 0.4453125 0.7734375
vt 0.44586796875 0.7734375
vt 0.44586796875 0.8359375
vt 0.3828125 0.8359375
vt 0.3828125 0.7734375
vt 0.3828125 0.8359375
vt 0.3828125 0.875
vt 0.28125 0.875
vt 0.3203125 0.8359375
vt 0.28125 0.875
vt 0.3828125 0.875
vt 0.3828125 0.8359375
vt 0.3203125 0.8359375
vt 0.28125 0.7734375
vt 0.3828125 0.7734375
vt 0.3828125 0.8359375
vt 0.28125 0.8359375
vt 0.4453125 0.8359375
vt 0.3828125 0.8359375
vt 0.3828125 0.7734375
vt 0.4453125 0.7734375
vt 0.4453125 0.8359375
vt 0.3828125 0.8359375
vt 0.3828125 0.7734375
vt 0.4453125 0.7734375
vt 0.44586796875 0.7734375
vt 0.44586796875 0.8359375
vt 0.3828125 0.8359375
vt 0.3828125 0.7734375
vt 0.3828125 0.8359375
vt 0.3828125 0.875
vt 0.28125 0.875
vt 0.3203125 0.8359375
vt 0.28125 0.875
vt 0.3828125 0.875
vt 0.3828125 0.8359375
vt 0.3203125 0.8359375
vt 0.28125 0.7734375
vt 0.3828125 0.7734375
vt 0.3828125 0.8359375
vt 0.28125 0.8359375
vt 0.4453125 0.8359375
vt 0.3828125 0.8359375
vt 0.3828125 0.7734375
vt 0.4453125 0.7734375
vt 0.4453125 0.8359375
vt 0.3828125 0.8359375
vt 0.3828125 0.7734375
vt 0.4453125 0.7734375
vt 0.44586796875 0.7734375
vt 0.44586796875 0.8359375
vt 0.3828125 0.8359375
vt 0.3828125 0.7734375
vt 0.3828125 0.8359375
vt 0.3828125 0.875
vt 0.28125 0.875
vt 0.3203125 0.8359375
vt 0.28125 0.875
vt 0.3828125 0.875
vt 0.3828125 0.8359375
vt 0.3203125 0.8359375
vt 0.28125 0.7734375
vt 0.3828125 0.7734375
vt 0.3828125 0.8359375
vt 0.28125 0.8359375
vt 0.4453125 0.8359375
vt 0.3828125 0.8359375
vt 0.3828125 0.7734375
vt 0.4453125 0.7734375
vt 0.4453125 0.8359375
vt 0.3828125 0.8359375
vt 0.3828125 0.7734375
vt 0.4453125 0.7734375
vt 0.44586796875 0.7734375
vt 0.44586796875 0.8359375
vt 0.3828125 0.8359375
vt 0.3828125 0.7734375
vt 0.3828125 0.8359375
vt 0.3828125 0.875
vt 0.28125 0.875
vt 0.3203125 0.8359375
vt 0.28125 0.875
vt 0.3828125 0.875
vt 0.3828125 0.8359375
vt 0.3203125 0.8359375
vt 0.28125 0.7734375
vt 0.3828125 0.7734375
vt 0.3828125 0.8359375
vt 0.28125 0.8359375
vt 0.4453125 0.8359375
vt 0.3828125 0.8359375
vt 0.3828125 0.7734375
vt 0.4453125 0.7734375
vt 0.4375 1
vt 0.375 1
vt 0.375 0.875
vt 0.4375 0.875
vt 0.5 0.875
vt 0.5 1
vt 0.4375 1
vt 0.4375 0.875
vt 0.375 0.875
vt 0.5 0.875
vt 0.5 0.9375
vt 0.375 0.9375
vt 0.5 0.9375
vt 0.5 1
vt 0.375 1
vt 0.375 0.9375
vt 0.375 0.875
vt 0.375 1
vt 0.25 1
vt 0.25 0.875
vt 0.375 1
vt 0.25 1
vt 0.25 0.875
vt 0.375 0.875
vt 1 0.25
vt 0.9375 0.25
vt 0.9375 0.125
vt 1 0.125
vt 0.9375 0.125
vt 0.9375 0.25
vt 0.875 0.25
vt 0.875 0.125
vt 0.875 0.1875
vt 1 0.1875
vt 1 0.25
vt 0.875 0.25
vt 1 0.125
vt 1 0.1875
vt 0.875 0.1875
vt 0.875 0.125
vt 1 0.125
vt 1 0.25
vt 0.875 0.25
vt 0.875 0.125
vt 0.875 0.625
vt 0.75 0.625
vt 0.75 0.5
vt 0.875 0.5
vt 0.5078125 0.875
vt 0.3828125 0.875
vt 0.3828125 0.8125
vt 0.5078125 0.8125
vt 0.5078125 0.8125
vt 0.5078125 0.875
vt 0.3828125 0.875
vt 0.3828125 0.8125
vt 0.5078125 0.75
vt 0.5078125 0.8125
vt 0.3828125 0.8125
vt 0.3828125 0.75
vt 0.5078125 0.875
vt 0.3828125 0.875
vt 0.3828125 0.8125
vt 0.5078125 0.8125
vt 0.34375 0.7734375
vt 0.34375 0.8359375
vt 0.28125 0.8359375
vt 0.28125 0.7734375
vt 0.34375 0.8359375
vt 0.28125 0.8359375
vt 0.28125 0.7734375
vt 0.34375 0.7734375
vt 0.65625 1
vt 0.625 1
vt 0.625 0.9375
vt 0.65625 0.9375
vt 0.65625 0.9375
vt 0.65625 1
vt 0.625 1
vt 0.625 0.9375
vt 0.5 0.90625
vt 0.625 0.90625
vt 0.625 0.9375
vt 0.5 0.9375
vt 0.625 0.90625
vt 0.625 0.9375
vt 0.5 0.9375
vt 0.5 0.90625
vt 0.625 0.9375
vt 0.625 1
vt 0.5 1
vt 0.5 0.9375
vt 0.625 1
vt 0.5 1
vt 0.5 0.9375
vt 0.625 0.9375
vt 0.65625 1
vt 0.625 1
vt 0.625 0.9375
vt 0.65625 0.9375
vt 0.65625 0.9375
vt 0.65625 1
vt 0.625 1
vt 0.625 0.9375
vt 0.5 0.90625
vt 0.625 0.90625
vt 0.625 0.9375
vt 0.5 0.9375
vt 0.625 0.90625
vt 0.625 0.9375
vt 0.5 0.9375
vt 0.5 0.90625
vt 0.625 0.9375
vt 0.625 1
vt 0.5 1
vt 0.5 0.9375
vt 0.625 1
vt 0.5 1
vt 0.5 0.9375
vt 0.625 0.9375
vt 0.65625 1
vt 0.625 1
vt 0.625 0.9375
vt 0.65625 0.9375
vt 0.65625 0.9375
vt 0.65625 1
vt 0.625 1
vt 0.625 0.9375
vt 0.5 0.90625
vt 0.625 0.90625
vt 0.625 0.9375
vt 0.5 0.9375
vt 0.625 0.90625
vt 0.625 0.9375
vt 0.5 0.9375
vt 0.5 0.90625
vt 0.625 0.9375
vt 0.625 1
vt 0.5 1
vt 0.5 0.9375
vt 0.625 1
vt 0.5 1
vt 0.5 0.9375
vt 0.625 0.9375
vt 0.7421875 1
vt 0.71875 1
vt 0.71875 0.9765625
vt 0.7421875 0.9765625
vt 0.7421875 0.9765625
vt 0.7421875 1
vt 0.71875 1
vt 0.71875 0.9765625
vt 0.6796875 0.953125
vt 0.7421875 0.953125
vt 0.7421875 0.9765625
vt 0.65625 0.9765625
vt 0.7421875 0.953125
vt 0.7421875 0.9765625
vt 0.6796875 0.9765625
vt 0.65625 0.953125
vt 0.71875 0.9765625
vt 0.71875 1
vt 0.65625 1
vt 0.65625 0.9765625
vt 0.65625 1
vt 0.7421875 1
vt 0.7421875 0.9765625
vt 0.65625 0.9765625
vt 0.7421875 1
vt 0.71875 1
vt 0.71875 0.9765625
vt 0.7421875 0.9765625
vt 0.7421875 0.9765625
vt 0.7421875 1
vt 0.71875 1
vt 0.71875 0.9765625
vt 0.6796875 0.953125
vt 0.7421875 0.953125
vt 0.7421875 0.9765625
vt 0.65625 0.9765625
vt 0.7421875 0.953125
vt 0.7421875 0.9765625
vt 0.6796875 0.9765625
vt 0.65625 0.953125
vt 0.71875 0.9765625
vt 0.71875 1
vt 0.65625 1
vt 0.65625 0.9765625
vt 0.65625 1
vt 0.7421875 1
vt 0.7421875 0.9765625
vt 0.65625 0.9765625
vt 0.7421875 1
vt 0.71875 1
vt 0.71875 0.9765625
vt 0.7421875 0.9765625
vt 0.7421875 0.9765625
vt 0.7421875 1
vt 0.71875 1
vt 0.71875 0.9765625
vt 0.6796875 0.953125
vt 0.7421875 0.953125
vt 0.7421875 0.9765625
vt 0.65625 0.9765625
vt 0.7421875 0.953125
vt 0.7421875 0.9765625
vt 0.6796875 0.9765625
vt 0.65625 0.953125
vt 0.71875 0.9765625
vt 0.71875 1
vt 0.65625 1
vt 0.65625 0.9765625
vt 0.65625 1
vt 0.7421875 1
vt 0.7421875 0.9765625
vt 0.65625 0.9765625
vt 0.7421875 1
vt 0.71875 1
vt 0.71875 0.9765625
vt 0.7421875 0.9765625
vt 0.7421875 0.9765625
vt 0.7421875 1
vt 0.71875 1
vt 0.71875 0.9765625
vt 0.6796875 0.953125
vt 0.7421875 0.953125
vt 0.7421875 0.9765625
vt 0.65625 0.9765625
vt 0.7421875 0.953125
vt 0.7421875 0.9765625
vt 0.6796875 0.9765625
vt 0.65625 0.953125
vt 0.71875 0.9765625
vt 0.71875 1
vt 0.65625 1
vt 0.65625 0.9765625
vt 0.65625 1
vt 0.7421875 1
vt 0.7421875 0.9765625
vt 0.65625 0.9765625
vt 0.7421875 0.9765625
vt 0.7421875 1
vt 0.71875 1
vt 0.71875 0.9765625
vt 0.7421875 1
vt 0.71875 1
vt 0.71875 0.9765625
vt 0.7421875 0.9765625
vt 0.65625 0.9765625
vt 0.65625 0.953125
vt 0.71875 0.953125
vt 0.7421875 0.9765625
vt 0.71875 0.9765625
vt 0.65625 0.9765625
vt 0.65625 0.953125
vt 0.7421875 0.953125
vt 0.71875 1
vt 0.65625 1
vt 0.65625 0.9765625
vt 0.71875 0.9765625
vt 0.7421875 0.9765625
vt 0.7421875 1
vt 0.65625 1
vt 0.65625 0.9765625
vt 0.7421875 0.9765625
vt 0.7421875 1
vt 0.71875 1
vt 0.71875 0.9765625
vt 0.7421875 1
vt 0.71875 1
vt 0.71875 0.9765625
vt 0.7421875 0.9765625
vt 0.65625 0.9765625
vt 0.65625 0.953125
vt 0.71875 0.953125
vt 0.7421875 0.9765625
vt 0.71875 0.9765625
vt 0.65625 0.9765625
vt 0.65625 0.953125
vt 0.7421875 0.953125
vt 0.71875 1
vt 0.65625 1
vt 0.65625 0.9765625
vt 0.71875 0.9765625
vt 0.7421875 0.9765625
vt 0.7421875 1
vt 0.65625 1
vt 0.65625 0.9765625
vt 0.7421875 0.9765625
vt 0.7421875 1
vt 0.71875 1
vt 0.71875 0.9765625
vt 0.7421875 1
vt 0.71875 1
vt 0.71875 0.9765625
vt 0.7421875 0.9765625
vt 0.65625 0.9765625
vt 0.65625 0.953125
vt 0.71875 0.953125
vt 0.7421875 0.9765625
vt 0.71875 0.9765625
vt 0.65625 0.9765625
vt 0.65625 0.953125
vt 0.7421875 0.953125
vt 0.71875 1
vt 0.65625 1
vt 0.65625 0.9765625
vt 0.71875 0.9765625
vt 0.7421875 0.9765625
vt 0.7421875 1
vt 0.65625 1
vt 0.65625 0.9765625
vt 0.7421875 0.9765625
vt 0.7421875 1
vt 0.71875 1
vt 0.71875 0.9765625
vt 0.7421875 1
vt 0.71875 1
vt 0.71875 0.9765625
vt 0.7421875 0.9765625
vt 0.65625 0.9765625
vt 0.65625 0.953125
vt 0.71875 0.953125
vt 0.7421875 0.9765625
vt 0.71875 0.9765625
vt 0.65625 0.9765625
vt 0.65625 0.953125
vt 0.7421875 0.953125
vt 0.71875 1
vt 0.65625 1
vt 0.65625 0.9765625
vt 0.71875 0.9765625
vt 0.7421875 0.9765625
vt 0.7421875 1
vt 0.65625 1
vt 0.65625 0.9765625
vt 0.453125 0.578125
vt 0.28125 0.578125
vt 0.28125 0.546875
vt 0.453125 0.546875
vt 0.453125 0.546875
vt 0.453125 0.578125
vt 0.28125 0.578125
vt 0.28125 0.546875
vt 0.28125 0.578125
vt 0.453125 0.578125
vt 0.453125 0.75
vt 0.28125 0.75
vt 0.453125 0.578125
vt 0.453125 0.75
vt 0.28125 0.75
vt 0.28125 0.578125
vt 0.453125 0.546875
vt 0.453125 0.578125
vt 0.28125 0.578125
vt 0.28125 0.546875
vt 0.453125 0.578125
vt 0.28125 0.578125
vt 0.28125 0.546875
vt 0.453125 0.546875
vt 0.453125 0.578125
vt 0.28125 0.578125
vt 0.28125 0.546875
vt 0.453125 0.546875
vt 0.453125 0.546875
vt 0.453125 0.578125
vt 0.28125 0.578125
vt 0.28125 0.546875
vt 0.28125 0.578125
vt 0.453125 0.578125
vt 0.453125 0.75
vt 0.28125 0.75
vt 0.453125 0.578125
vt 0.453125 0.75
vt 0.28125 0.75
vt 0.28125 0.578125
vt 0.453125 0.546875
vt 0.453125 0.578125
vt 0.28125 0.578125
vt 0.28125 0.546875
vt 0.453125 0.578125
vt 0.28125 0.578125
vt 0.28125 0.546875
vt 0.453125 0.546875
vt 0.65625 1
vt 0.625 1
vt 0.625 0.9375
vt 0.65625 0.9375
vt 0.65625 0.9375
vt 0.65625 1
vt 0.625 1
vt 0.625 0.9375
vt 0.5 0.90625
vt 0.625 0.90625
vt 0.625 0.9375
vt 0.5 0.9375
vt 0.625 0.90625
vt 0.625 0.9375
vt 0.5 0.9375
vt 0.5 0.90625
vt 0.625 0.9375
vt 0.625 1
vt 0.5 1
vt 0.5 0.9375
vt 0.625 1
vt 0.5 1
vt 0.5 0.9375
vt 0.625 0.9375
vt 0.25 1
vt 0 1
vt 0 0.875
vt 0.25 0.875
vt 0.25 0.875
vt 0.25 1
vt 0 1
vt 0 0.875
vt 0 0.75
vt 0.25 0.75
vt 0.25 1
vt 0 1
vt 0.25 0.75
vt 0.25 1
vt 0 1
vt 0 0.75
vt 0.25 0.875
vt 0.25 1
vt 0 1
vt 0 0.875
vt 0.25 1
vt 0 1
vt 0 0.875
vt 0.25 0.875
vt 0.25 1
vt 0 1
vt 0 0.875
vt 0.25 0.875
vt 0.25 0.875
vt 0.25 1
vt 0 1
vt 0 0.875
vt 0 0.75
vt 0.25 0.75
vt 0.25 1
vt 0 1
vt 0.25 0.75
vt 0.25 1
vt 0 1
vt 0 0.75
vt 0.25 0.875
vt 0.25 1
vt 0 1
vt 0 0.875
vt 0.25 1
vt 0 1
vt 0 0.875
vt 0.25 0.875
vt 0.25 1
vt 0 1
vt 0 0.875
vt 0.25 0.875
vt 0.25 0.875
vt 0.25 1
vt 0 1
vt 0 0.875
vt 0 0.75
vt 0.25 0.75
vt 0.25 1
vt 0 1
vt 0.25 0.75
vt 0.25 1
vt 0 1
vt 0 0.75
vt 0.25 0.875
vt 0.25 1
vt 0 1
vt 0 0.875
vt 0.25 1
vt 0 1
vt 0 0.875
vt 0.25 0.875
vt 0.25 1
vt 0 1
vt 0 0.875
vt 0.25 0.875
vt 0.25 0.875
vt 0.25 1
vt 0 1
vt 0 0.875
vt 0 0.75
vt 0.25 0.75
vt 0.25 1
vt 0 1
vt 0.25 0.75
vt 0.25 1
vt 0 1
vt 0 0.75
vt 0.25 0.875
vt 0.25 1
vt 0 1
vt 0 0.875
vt 0.25 1
vt 0 1
vt 0 0.875
vt 0.25 0.875
vt 0.6328125 0.875
vt 0.5078125 0.875
vt 0.5078125 0.78125
vt 0.6328125 0.78125
vt 0.6328125 0.78125
vt 0.6328125 0.875
vt 0.5078125 0.875
vt 0.5078125 0.78125
vt 0.453125 0.625
vt 0.578125 0.625
vt 0.578125 0.75
vt 0.453125 0.75
vt 0.6328125 0.75
vt 0.6328125 0.875
vt 0.5078125 0.875
vt 0.5078125 0.75
vt 0.6328125 0.78125
vt 0.6328125 0.875
vt 0.5078125 0.875
vt 0.5078125 0.78125
vt 0.6328125 0.875
vt 0.5078125 0.875
vt 0.5078125 0.78125
vt 0.6328125 0.78125
vt 0.28125 0.875
vt 0 0.875
vt 0 0.75
vt 0.28125 0.75
vt 0.28125 0.75
vt 0.28125 0.875
vt 0 0.875
vt 0 0.75
vt 0 0.46875
vt 0.28125 0.46875
vt 0.28125 0.75
vt 0 0.75
vt 0.28125 0.46875
vt 0.28125 0.75
vt 0 0.75
vt 0 0.46875
vt 0.28125 0.75
vt 0.28125 0.875
vt 0 0.875
vt 0 0.75
vt 0.28125 0.875
vt 0 0.875
vt 0 0.75
vt 0.28125 0.75
vt 0.203125 0.875
vt 0.078125 0.875
vt 0 0.75103125
vt 0.28125 0.75103125
vt 0.28125 0.75103125
vt 0.203125 0.875
vt 0.078125 0.875
vt 0 0.75103125
vt 0 0.75
vt 0.125 0.75
vt 0.125 0.875
vt 0 0.875
vt 0.28125 0.46875
vt 0.28125 0.75
vt 0 0.75
vt 0 0.46875
vt 0.28125 0.75103125
vt 0.203125 0.875
vt 0.078125 0.875
vt 0 0.75103125
vt 0.203125 0.875
vt 0.078125 0.875
vt 0 0.75103125
vt 0.28125 0.75103125
vn 1 0 0
vn -1 0 0
vn 0 1 0
vn 0 -1 0
vn 0 0 1
vn 0 0 -1
vn 0 0 1
vn 0 0 -1
vn 0.7071061561863541 0.7071074061861886 0
vn -0.7071067811865476 0.7071067811865476 0
vn 0.7071061561863541 -0.7071074061861886 0
vn -0.7071067811865476 -0.7071067811865476 0
vn 0 0 -1
vn 0 0 1
vn -0.7071061561863541 0.7071074061861886 0
vn 0.7071067811865476 0.7071067811865476 0
vn -0.7071061561863541 -0.7071074061861886 0
vn 0.7071067811865476 -0.7071067811865476 0
vn 1 0 0
vn -1 0 0
vn 0 1 0
vn 0 -1 0
vn 0 0 1
vn 0 0 -1
vn 1 0 0
vn -0.7071067811865476 0 -0.7071067811865476
vn 0 1 0
vn 0 -1 0
vn 0 0 1
vn 0 0 -1
vn 0 0 -1
vn -0.7071067811865476 0 0.7071067811865476
vn 0 1 0
vn 0 -1 0
vn 1 0 0
vn -1 0 0
vn -1 0 0
vn 0.7071067811865476 0 0.7071067811865476
vn 0 1 0
vn 0 -1 0
vn 0 0 -1
vn 0 0 1
vn 0 0 1
vn 0.7071067811865476 0 -0.7071067811865476
vn 0 1 0
vn 0 -1 0
vn -1 0 0
vn 1 0 0
vn 0 0 1
vn -0.7071067811865476 0 -0.7071067811865476
vn 0 1 0
vn 0 -1 0
vn 1 0 0
vn -1 0 0
vn -1 0 0
vn 0.7071067811865476 0 -0.7071067811865476
vn 0 1 0
vn 0 -1 0
vn 0 0 1
vn 0 0 -1
vn 0 0 -1
vn 0.7071067811865476 0 0.7071067811865476
vn 0 1 0
vn 0 -1 0
vn -1 0 0
vn 1 0 0
vn 1 0 0
vn -0.7071067811865476 0 0.7071067811865476
vn 0 1 0
vn 0 -1 0
vn 0 0 -1
vn 0 0 1
vn 1 0 0
vn -1 0 0
vn 0 1 0
vn 0 -1 0
vn 0 0 1
vn 0 0 -1
vn 1 0 0
vn -1 0 0
vn 0 1 0
vn 0 -1 0
vn 0 0 1
vn 0 0 -1
vn 1 0 0
vn -1 0 0
vn 0 1 0
vn 0 -1 0
vn 0 0 1
vn 0 0 -1
vn 1 0 0
vn -1 0 0
vn 0 1 0
vn 0 -1 0
vn 0 0 1
vn 0 0 -1
vn 0 0 -1
vn 0 0 1
vn 0 1 0
vn 0 -1 0
vn 1 0 0
vn -1 0 0
vn -1 0 0
vn 1 0 0
vn 0 1 0
vn 0 -1 0
vn 0 0 -1
vn 0 0 1
vn 0 0 1
vn -0.7071067811865476 0 -0.7071067811865476
vn 0 1 0
vn 0 -1 0
vn -1 0 0
vn 1 0 0
vn 1 0 0
vn -0.7071067811865476 0 0.7071067811865476
vn 0 1 0
vn 0 -1 0
vn 0 0 1
vn 0 0 -1
vn 0 0 -1
vn 0.7071067811865476 0 0.7071067811865476
vn 0 1 0
vn 0 -1 0
vn 1 0 0
vn -1 0 0
vn -1 0 0
vn 0.7071067811865476 0 -0.7071067811865476
vn 0 1 0
vn 0 -1 0
vn 0 0 -1
vn 0 0 1
vn 0 0 1
vn 0.7071067811865476 0 -0.7071067811865476
vn 0 1 0
vn 0 -1 0
vn 1 0 0
vn -1 0 0
vn -1 0 0
vn 0.7071067811865476 0 0.7071067811865476
vn 0 1 0
vn 0 -1 0
vn 0 0 1
vn 0 0 -1
vn 0 0 -1
vn -0.7071067811865476 0 0.7071067811865476
vn 0 1 0
vn 0 -1 0
vn -1 0 0
vn 1 0 0
vn 1 0 0
vn -0.7071067811865476 0 -0.7071067811865476
vn 0 1 0
vn 0 -1 0
vn 0 0 -1
vn 0 0 1
vn 1 0 0
vn -1 0 0
vn 0 1 0
vn 0 -1 0
vn 0 0 1
vn 0 0 -1
vn 1 0 0
vn -1 0 0
vn 0 1 0
vn 0 -1 0
vn 0 0 1
vn 0 0 -1
vn 0 0 1
vn 0 0 -1
vn 0 1 0
vn 0 -1 0
vn -1 0 0
vn 1 0 0
vn 1 0 0
vn -1 0 0
vn 0 1 0
vn 0 -1 0
vn 0 0 1
vn 0 0 -1
vn 1 0 0
vn -1 0 0
vn 0 1 0
vn 0 -1 0
vn 0 0 1
vn 0 0 -1
vn 1 0 0
vn -1 0 0
vn 0 1 0
vn 0 -1 0
vn 0 0 1
vn 0 0 -1
vn 1 0 0
vn -1 0 0
vn 0 1 0
vn 0 -1 0
vn 0 0 1
vn 0 0 -1
vn 1 0 0
vn -1 0 0
vn 0 1 0
vn 0 -1 0
vn 0 0 1
vn 0 0 -1
vn 1 0 0
vn -1 0 0
vn 0 1 0
vn 0 -1 0
vn 0 0 1
vn 0 0 -1
vn 0.847998304005088 0.52999894000318 0
vn -0.847998304005088 0.52999894000318 0
vn 0 1 0
vn 0 -1 0
vn 0 0.52999894000318 0.847998304005088
vn 0 0.52999894000318 -0.847998304005088
usemtl m_9c62120c-f879-f759-338a-3f38d2d498f8
f 2/1/1 1/2/1 3/3/1 4/4/1
f 7/5/2 5/6/2 6/7/2 8/8/2
f 5/9/3 1/10/3 2/11/3 6/12/3
f 4/13/4 3/14/4 7/15/4 8/16/4
f 3/17/5 1/18/5 5/19/5 7/20/5
f 6/21/6 2/22/6 4/23/6 8/24/6
usemtl m_9c665e2e-965c-0485-ccd6-dd35cf4edd2f
f 10/25/7 9/26/7 15/27/7 11/28/7
f 16/29/8 12/30/8 13/31/8 14/32/8
f 12/33/9 9/34/9 10/35/9 13/36/9
f 15/37/10 9/38/10 12/39/10 16/40/10
f 13/41/11 10/42/11 11/43/11 14/44/11
f 11/45/12 15/46/12 16/47/12 14/48/12
f 18/49/13 17/50/13 23/51/13 19/52/13
f 24/53/14 20/54/14 21/55/14 22/56/14
f 20/57/15 17/58/15 18/59/15 21/60/15
f 23/61/16 17/62/16 20/63/16 24/64/16
f 21/65/17 18/66/17 19/67/17 22/68/17
f 19/69/18 23/70/18 24/71/18 22/72/18
f 26/73/19 25/74/19 27/75/19 28/76/19
f 31/77/20 29/78/20 30/79/20 32/80/20
f 29/81/21 25/82/21 26/83/21 30/84/21
f 28/85/22 27/86/22 31/87/22 32/88/22
f 27/89/23 25/90/23 29/91/23 31/92/23
f 30/93/24 26/94/24 28/95/24 32/96/24
f 34/97/25 33/98/25 35/99/25 36/100/25
f 39/101/26 37/102/26 38/103/26 40/104/26
f 37/105/27 33/106/27 34/107/27 38/108/27
f 36/109/28 35/110/28 39/111/28 40/112/28
f 35/113/29 33/114/29 37/115/29 39/116/29
f 38/117/30 34/118/30 36/119/30 40/120/30
f 42/121/31 41/122/31 43/123/31 44/124/31
f 47/125/32 45/126/32 46/127/32 48/128/32
f 45/129/33 41/130/33 42/131/33 46/132/33
f 44/133/34 43/134/34 47/135/34 48/136/34
f 43/137/35 41/138/35 45/139/35 47/140/35
f 46/141/36 42/142/36 44/143/36 48/144/36
f 50/145/37 49/146/37 51/147/37 52/148/37
f 55/149/38 53/150/38 54/151/38 56/152/38
f 53/153/39 49/154/39 50/155/39 54/156/39
f 52/157/40 51/158/40 55/159/40 56/160/40
f 51/161/41 49/162/41 53/163/41 55/164/41
f 54/165/42 50/166/42 52/167/42 56/168/42
f 58/169/43 57/170/43 59/171/43 60/172/43
f 63/173/44 61/174/44 62/175/44 64/176/44
f 61/177/45 57/178/45 58/179/45 62/180/45
f 60/181/46 59/182/46 63/183/46 64/184/46
f 59/185/47 57/186/47 61/187/47 63/188/47
f 62/189/48 58/190/48 60/191/48 64/192/48
f 67/193/49 65/194/49 66/195/49 68/196/49
f 70/197/50 69/198/50 71/199/50 72/200/50
f 66/201/51 65/202/51 69/203/51 70/204/51
f 71/205/52 67/206/52 68/207/52 72/208/52
f 69/209/53 65/210/53 67/211/53 71/212/53
f 68/213/54 66/214/54 70/215/54 72/216/54
f 75/217/55 73/218/55 74/219/55 76/220/55
f 78/221/56 77/222/56 79/223/56 80/224/56
f 74/225/57 73/226/57 77/227/57 78/228/57
f 79/229/58 75/230/58 76/231/58 80/232/58
f 77/233/59 73/234/59 75/235/59 79/236/59
f 76/237/60 74/238/60 78/239/60 80/240/60
f 83/241/61 81/242/61 82/243/61 84/244/61
f 86/245/62 85/246/62 87/247/62 88/248/62
f 82/249/63 81/250/63 85/251/63 86/252/63
f 87/253/64 83/254/64 84/255/64 88/256/64
f 85/257/65 81/258/65 83/259/65 87/260/65
f 84/261/66 82/262/66 86/263/66 88/264/66
f 91/265/67 89/266/67 90/267/67 92/268/67
f 94/269/68 93/270/68 95/271/68 96/272/68
f 90/273/69 89/274/69 93/275/69 94/276/69
f 95/277/70 91/278/70 92/279/70 96/280/70
f 93/281/71 89/282/71 91/283/71 95/284/71
f 92/285/72 90/286/72 94/287/72 96/288/72
f 98/289/73 97/290/73 99/291/73 100/292/73
f 103/293/74 101/294/74 102/295/74 104/296/74
f 101/297/75 97/298/75 98/299/75 102/300/75
f 100/301/76 99/302/76 103/303/76 104/304/76
f 99/305/77 97/306/77 101/307/77 103/308/77
f 102/309/78 98/310/78 100/311/78 104/312/78
usemtl m_9c62120c-f879-f759-338a-3f38d2d498f8
f 106/313/79 105/314/79 107/315/79 108/316/79
f 111/317/80 109/318/80 110/319/80 112/320/80
f 109/321/81 105/322/81 106/323/81 110/324/81
f 108/325/82 107/326/82 111/327/82 112/328/82
f 107/329/83 105/330/83 109/331/83 111/332/83
usemtl m_b9841124-3397-aa63-6242-581bef32c803
f 110/333/84 106/334/84 108/335/84 112/336/84
usemtl m_9c665e2e-965c-0485-ccd6-dd35cf4edd2f
f 114/337/85 113/338/85 115/339/85 116/340/85
f 119/341/86 117/342/86 118/343/86 120/344/86
f 117/345/87 113/346/87 114/347/87 118/348/87
f 116/349/88 115/350/88 119/351/88 120/352/88
f 115/353/89 113/354/89 117/355/89 119/356/89
f 118/357/90 114/358/90 116/359/90 120/360/90
f 122/361/91 121/362/91 123/363/91 124/364/91
f 127/365/92 125/366/92 126/367/92 128/368/92
f 125/369/93 121/370/93 122/371/93 126/372/93
f 124/373/94 123/374/94 127/375/94 128/376/94
f 123/377/95 121/378/95 125/379/95 127/380/95
f 126/381/96 122/382/96 124/383/96 128/384/96
f 130/385/97 129/386/97 131/387/97 132/388/97
f 135/389/98 133/390/98 134/391/98 136/392/98
f 133/393/99 129/394/99 130/395/99 134/396/99
f 132/397/100 131/398/100 135/399/100 136/400/100
f 131/401/101 129/402/101 133/403/101 135/404/101
f 134/405/102 130/406/102 132/407/102 136/408/102
f 138/409/103 137/410/103 139/411/103 140/412/103
f 143/413/104 141/414/104 142/415/104 144/416/104
f 141/417/105 137/418/105 138/419/105 142/420/105
f 140/421/106 139/422/106 143/423/106 144/424/106
f 139/425/107 137/426/107 141/427/107 143/428/107
f 142/429/108 138/430/108 140/431/108 144/432/108
f 146/433/109 145/434/109 147/435/109 148/436/109
f 151/437/110 149/438/110 150/439/110 152/440/110
f 149/441/111 145/442/111 146/443/111 150/444/111
f 148/445/112 147/446/112 151/447/112 152/448/112
f 147/449/113 145/450/113 149/451/113 151/452/113
f 150/453/114 146/454/114 148/455/114 152/456/114
f 154/457/115 153/458/115 155/459/115 156/460/115
f 159/461/116 157/462/116 158/463/116 160/464/116
f 157/465/117 153/466/117 154/467/117 158/468/117
f 156/469/118 155/470/118 159/471/118 160/472/118
f 155/473/119 153/474/119 157/475/119 159/476/119
f 158/477/120 154/478/120 156/479/120 160/480/120
f 162/481/121 161/482/121 163/483/121 164/484/121
f 167/485/122 165/486/122 166/487/122 168/488/122
f 165/489/123 161/490/123 162/491/123 166/492/123
f 164/493/124 163/494/124 167/495/124 168/496/124
f 163/497/125 161/498/125 165/499/125 167/500/125
f 166/501/126 162/502/126 164/503/126 168/504/126
f 170/505/127 169/506/127 171/507/127 172/508/127
f 175/509/128 173/510/128 174/511/128 176/512/128
f 173/513/129 169/514/129 170/515/129 174/516/129
f 172/517/130 171/518/130 175/519/130 176/520/130
f 171/521/131 169/522/131 173/523/131 175/524/131
f 174/525/132 170/526/132 172/527/132 176/528/132
f 179/529/133 177/530/133 178/531/133 180/532/133
f 182/533/134 181/534/134 183/535/134 184/536/134
f 178/537/135 177/538/135 181/539/135 182/540/135
f 183/541/136 179/542/136 180/543/136 184/544/136
f 181/545/137 177/546/137 179/547/137 183/548/137
f 180/549/138 178/550/138 182/551/138 184/552/138
f 187/553/139 185/554/139 186/555/139 188/556/139
f 190/557/140 189/558/140 191/559/140 192/560/140
f 186/561/141 185/562/141 189/563/141 190/564/141
f 191/565/142 187/566/142 188/567/142 192/568/142
f 189/569/143 185/570/143 187/571/143 191/572/143
f 188/573/144 186/574/144 190/575/144 192/576/144
f 195/577/145 193/578/145 194/579/145 196/580/145
f 198/581/146 197/582/146 199/583/146 200/584/146
f 194/585/147 193/586/147 197/587/147 198/588/147
f 199/589/148 195/590/148 196/591/148 200/592/148
f 197/593/149 193/594/149 195/595/149 199/596/149
f 196/597/150 194/598/150 198/599/150 200/600/150
f 203/601/151 201/602/151 202/603/151 204/604/151
f 206/605/152 205/606/152 207/607/152 208/608/152
f 202/609/153 201/610/153 205/611/153 206/612/153
f 207/613/154 203/614/154 204/615/154 208/616/154
f 205/617/155 201/618/155 203/619/155 207/620/155
f 204/621/156 202/622/156 206/623/156 208/624/156
f 210/625/157 209/626/157 211/627/157 212/628/157
f 215/629/158 213/630/158 214/631/158 216/632/158
f 213/633/159 209/634/159 210/635/159 214/636/159
f 212/637/160 211/638/160 215/639/160 216/640/160
f 211/641/161 209/642/161 213/643/161 215/644/161
f 214/645/162 210/646/162 212/647/162 216/648/162
f 218/649/163 217/650/163 219/651/163 220/652/163
f 223/653/164 221/654/164 222/655/164 224/656/164
f 221/657/165 217/658/165 218/659/165 222/660/165
f 220/661/166 219/662/166 223/663/166 224/664/166
f 219/665/167 217/666/167 221/667/167 223/668/167
f 222/669/168 218/670/168 220/671/168 224/672/168
f 226/673/169 225/674/169 227/675/169 228/676/169
f 231/677/170 229/678/170 230/679/170 232/680/170
f 229/681/171 225/682/171 226/683/171 230/684/171
f 228/685/172 227/686/172 231/687/172 232/688/172
f 227/689/173 225/690/173 229/691/173 231/692/173
f 230/693/174 226/694/174 228/695/174 232/696/174
f 234/697/175 233/698/175 235/699/175 236/700/175
f 239/701/176 237/702/176 238/703/176 240/704/176
f 237/705/177 233/706/177 234/707/177 238/708/177
f 236/709/178 235/710/178 239/711/178 240/712/178
f 235/713/179 233/714/179 237/715/179 239/716/179
f 238/717/180 234/718/180 236/719/180 240/720/180
f 242/721/181 241/722/181 243/723/181 244/724/181
f 247/725/182 245/726/182 246/727/182 248/728/182
f 245/729/183 241/730/183 242/731/183 246/732/183
f 244/733/184 243/734/184 247/735/184 248/736/184
f 243/737/185 241/738/185 245/739/185 247/740/185
f 246/741/186 242/742/186 244/743/186 248/744/186
f 250/745/187 249/746/187 251/747/187 252/748/187
f 255/749/188 253/750/188 254/751/188 256/752/188
f 253/753/189 249/754/189 250/755/189 254/756/189
f 252/757/190 251/758/190 255/759/190 256/760/190
f 251/761/191 249/762/191 253/763/191 255/764/191
f 254/765/192 250/766/192 252/767/192 256/768/192
f 258/769/193 257/770/193 259/771/193 260/772/193
f 263/773/194 261/774/194 262/775/194 264/776/194
f 261/777/195 257/778/195 258/779/195 262/780/195
f 260/781/196 259/782/196 263/783/196 264/784/196
f 259/785/197 257/786/197 261/787/197 263/788/197
f 262/789/198 258/790/198 260/791/198 264/792/198
f 266/793/199 265/794/199 267/795/199 268/796/199
f 271/797/200 269/798/200 270/799/200 272/800/200
f 269/801/201 265/802/201 266/803/201 270/804/201
f 268/805/202 267/806/202 271/807/202 272/808/202
f 267/809/203 265/810/203 269/811/203 271/812/203
f 270/813/204 266/814/204 268/815/204 272/816/204
f 274/817/205 273/818/205 275/819/205 276/820/205
f 279/821/206 277/822/206 278/823/206 280/824/206
f 277/825/207 273/826/207 274/827/207 278/828/207
f 276/829/208 275/830/208 279/831/208 280/832/208
f 275/833/209 273/834/209 277/835/209 279/836/209
f 278/837/210 274/838/210 276/839/210 280/840/210
f 282/841/211 281/842/211 283/843/211 284/844/211
f 287/845/212 285/846/212 286/847/212 288/848/212
f 285/849/213 281/850/213 282/851/213 286/852/213
f 284/853/214 283/854/214 287/855/214 288/856/214
f 283/857/215 281/858/215 285/859/215 287/860/215
f 286/861/216 282/862/216 284/863/216 288/864/216